<svg width="152" height="45" viewBox="0 0 152 45" fill="none" xmlns="http://www.w3.org/2000/svg">
<path d="M135.777 41.2502L139.453 32.3863L132.823 16.1357H138.228L142.083 27.4499L146.011 16.1357H151.343L141.11 41.2502H135.777Z" fill="white"/>
<path d="M123.075 33.8996V19.9912H120.012V16.1357H123.111V14.4062C123.111 12.8207 123.375 11.5956 123.903 10.7309C124.432 9.84207 125.129 9.24154 125.993 8.92926C126.882 8.59296 127.831 8.4248 128.84 8.4248C129.609 8.4248 130.269 8.49687 130.822 8.641C131.398 8.7611 131.939 8.94127 132.443 9.18148L130.858 12.9649C130.641 12.8448 130.401 12.7487 130.137 12.6766C129.897 12.5805 129.645 12.5325 129.38 12.5325C128.876 12.5325 128.528 12.7126 128.335 13.073C128.143 13.4093 128.047 13.8657 128.047 14.4422V16.1357H131.686V19.9912H128.047V33.8996H123.075Z" fill="white"/>
<path d="M101.192 33.8996V16.1357H106.128V20.2434L105.408 20.2794C105.72 19.1504 106.176 18.2616 106.777 17.613C107.401 16.9404 108.11 16.472 108.903 16.2078C109.696 15.9195 110.488 15.7754 111.281 15.7754C113.323 15.7754 114.908 16.3519 116.037 17.5049C117.19 18.6339 117.767 20.1953 117.767 22.1891V33.8996H112.794V24.0268C112.794 22.6575 112.542 21.6607 112.038 21.0361C111.557 20.3875 110.788 20.0632 109.732 20.0632C108.939 20.0632 108.266 20.2554 107.714 20.6397C107.185 21.0241 106.789 21.6126 106.525 22.4053C106.26 23.198 106.128 24.231 106.128 25.5041V33.8996H101.192Z" fill="white"/>
<path d="M89.7339 34.2599C88.1485 34.2599 86.7793 34.0077 85.6263 33.5032C84.4973 32.9988 83.5724 32.3142 82.8518 31.4494C82.1552 30.5846 81.6387 29.6118 81.3024 28.5308C80.9901 27.4258 80.834 26.2848 80.834 25.1077C80.834 23.9787 80.9901 22.8617 81.3024 21.7567C81.6387 20.6518 82.1432 19.6549 82.8158 18.7661C83.4884 17.8532 84.3772 17.1326 85.4821 16.6041C86.5871 16.0516 87.9083 15.7754 89.4457 15.7754C90.8149 15.7754 92.016 16.0156 93.0489 16.496C94.1059 16.9524 94.9826 17.601 95.6793 18.4418C96.3759 19.2585 96.8923 20.2314 97.2287 21.3604C97.589 22.4894 97.7691 23.7025 97.7691 24.9996C97.7691 25.2158 97.7571 25.4681 97.7331 25.7563C97.7331 26.0446 97.7091 26.3689 97.661 26.7292H85.7704C85.9145 27.8342 86.3829 28.6629 87.1757 29.2154C87.9684 29.7439 88.9172 30.0081 90.0222 30.0081C90.911 30.0081 91.7998 29.852 92.6886 29.5397C93.5774 29.2274 94.3581 28.783 95.0307 28.2065L97.3007 31.6656C96.4119 32.2902 95.5832 32.7946 94.8145 33.179C94.0698 33.5633 93.2891 33.8396 92.4724 34.0077C91.6797 34.1759 90.7669 34.2599 89.7339 34.2599ZM92.9048 24.243C92.9528 24.0508 92.9889 23.8586 93.0129 23.6664C93.0609 23.4743 93.0849 23.2941 93.0849 23.126C93.0849 22.6455 92.9889 22.2131 92.7967 21.8288C92.6285 21.4204 92.3883 21.0721 92.076 20.7839C91.7638 20.4956 91.3914 20.2794 90.959 20.1353C90.5267 19.9671 90.0462 19.8831 89.5178 19.8831C88.677 19.8831 87.9804 20.0512 87.4279 20.3875C86.8994 20.6998 86.491 21.0962 86.2028 21.5766C85.9386 22.057 85.7704 22.5494 85.6983 23.0539H94.5623L92.9048 24.243Z" fill="white"/>
<path d="M58.5525 33.8996V29.6838L73.0014 11.7398L73.7941 13.3973H59.4173V8.78516H78.2261V13.0009L64.2456 30.3324L63.5249 29.2875H78.7305V33.8996H58.5525Z" fill="white"/>
<path d="M45.0404 13.0867C45.0404 20.3143 39.176 26.1735 31.942 26.1735C24.7079 26.1735 18.8435 20.3143 18.8435 13.0867C18.8435 5.85913 24.7079 0 31.942 0C39.176 0 45.0404 5.85913 45.0404 13.0867Z" fill="#3067FF"/>
<ellipse cx="13.5582" cy="13.3162" rx="13.0985" ry="13.0867" fill="#3067FF"/>
<ellipse cx="13.0985" cy="31.9129" rx="13.0985" ry="13.0867" fill="#3067FF"/>
<ellipse cx="31.942" cy="31.6834" rx="13.0985" ry="13.0867" fill="#3067FF"/>
<path d="M41.0188 22.3849L22.635 4.01758L4.25122 22.3849L22.635 40.7523L41.0188 22.3849Z" fill="#D8ECFF"/>
<path d="M15.0126 29.5526C11.0365 25.5745 11.041 19.1292 15.0226 15.1567L15.182 14.9977V14.9977C19.1581 18.9758 19.1536 25.4211 15.1719 29.3936L15.0126 29.5526V29.5526Z" fill="#3067FF"/>
<path d="M30.0402 29.6385C26.0641 25.6604 26.0686 19.2152 30.0502 15.2426L30.2096 15.0837V15.0837C34.1857 19.0618 34.1812 25.507 30.1995 29.4796L30.0402 29.6385V29.6385Z" fill="#3067FF"/>
<path d="M15.5566 14.6836V14.6836C19.491 10.7583 25.8653 10.7627 29.7941 14.6935L29.9647 14.8642V14.8642C26.0304 18.7895 19.6561 18.7851 15.7272 14.8543L15.5566 14.6836Z" fill="#3067FF"/>
<path d="M15.4873 29.7676V29.7676C19.4216 25.8423 25.796 25.8467 29.7248 29.7775L29.8954 29.9482V29.9482C25.9611 33.8735 19.5867 33.8691 15.6579 29.9382L15.4873 29.7676Z" fill="#3067FF"/>
</svg>
